blackcompressed.ufo
<glyph name="percent" format="1">
  <advance width="730"/>
  <unicode hex="0025"/>
  <outline>
    <contour>
      <point x="477" y="200"/>
      <point x="354" y="200"/>
      <point x="477" y="200" type="curve"/>
      <point x="477" y="253"/>
      <point x="477" y="304"/>
      <point x="523" y="304" type="curve"/>
      <point x="569" y="304"/>
      <point x="571" y="252"/>
      <point x="571" y="199" type="curve"/>
      <point x="571" y="147"/>
      <point x="574" y="95"/>
      <point x="529" y="95" type="curve"/>
      <point x="483" y="95"/>
      <point x="477" y="146"/>
      <point x="477" y="200" type="curve"/>
      <point x="354" y="200"/>
      <point x="477" y="200"/>
      <point x="354" y="200" type="curve"/>
      <point x="354" y="85"/>
      <point x="414" y="-5"/>
      <point x="524" y="-5" type="curve"/>
      <point x="636" y="-5"/>
      <point x="700" y="84"/>
      <point x="700" y="204" type="curve"/>
      <point x="700" y="317"/>
      <point x="636" y="404"/>
      <point x="529" y="404" type="curve"/>
      <point x="415" y="405"/>
      <point x="354" y="318"/>
      <point x="354" y="200" type="curve"/>
    </contour>
    <contour>
      <point x="153" y="635"/>
      <point x="30" y="635"/>
      <point x="153" y="635" type="curve"/>
      <point x="153" y="688"/>
      <point x="153" y="739"/>
      <point x="199" y="739" type="curve"/>
      <point x="245" y="740"/>
      <point x="247" y="687"/>
      <point x="247" y="633" type="curve"/>
      <point x="247" y="581"/>
      <point x="250" y="529"/>
      <point x="205" y="529" type="curve"/>
      <point x="159" y="529"/>
      <point x="153" y="581"/>
      <point x="153" y="635" type="curve"/>
      <point x="30" y="635"/>
      <point x="153" y="635"/>
      <point x="30" y="635" type="curve"/>
      <point x="30" y="518"/>
      <point x="87" y="430"/>
      <point x="200" y="430" type="curve"/>
      <point x="312" y="430"/>
      <point x="376" y="519"/>
      <point x="376" y="638" type="curve"/>
      <point x="376" y="752"/>
      <point x="312" y="839"/>
      <point x="205" y="838" type="curve"/>
      <point x="91" y="838"/>
      <point x="30" y="753"/>
      <point x="30" y="635" type="curve"/>
    </contour>
    <contour>
      <point x="266" y="47"/>
      <point x="138" y="47"/>
      <point x="266" y="47" type="curve"/>
      <point x="373" y="294"/>
      <point x="479" y="541"/>
      <point x="586" y="789" type="curve"/>
      <point x="457" y="789"/>
      <point x="586" y="789"/>
      <point x="457" y="789" type="curve"/>
      <point x="351" y="541"/>
      <point x="244" y="294"/>
      <point x="138" y="47" type="curve"/>
    </contour>
  </outline>
</glyph>
<glyph name="parenright" format="1">
  <advance width="367"/>
  <unicode hex="0029"/>
  <outline>
    <contour>
      <point x="114" y="-295"/>
      <point x="30" y="-224"/>
      <point x="114" y="-295" type="curve"/>
      <point x="265" y="-92"/>
      <point x="337" y="76"/>
      <point x="337" y="329" type="curve"/>
      <point x="337" y="576"/>
      <point x="271" y="741"/>
      <point x="117" y="934" type="curve"/>
      <point x="33" y="856"/>
      <point x="117" y="934"/>
      <point x="33" y="856" type="curve"/>
      <point x="162" y="688"/>
      <point x="187" y="536"/>
      <point x="187" y="324" type="curve"/>
      <point x="187" y="108"/>
      <point x="154" y="-46"/>
      <point x="30" y="-224" type="curve"/>
    </contour>
  </outline>
</glyph>
<glyph name="B" format="1">
  <advance width="505"/>
  <unicode hex="0042"/>
  <outline>
    <contour>
      <point x="104" y="722"/>
      <point x="104" y="612"/>
      <point x="104" y="722" type="curve"/>
      <point x="104" y="722"/>
      <point x="104" y="722"/>
      <point x="104" y="722" type="curve"/>
      <point x="104" y="612"/>
      <point x="104" y="722"/>
      <point x="104" y="612" type="curve"/>
      <point x="104" y="612"/>
      <point x="104" y="612"/>
      <point x="104" y="612" type="curve"/>
    </contour>
    <contour>
      <point x="104" y="110"/>
      <point x="104" y="0"/>
      <point x="104" y="110" type="curve"/>
      <point x="104" y="110"/>
      <point x="104" y="110"/>
      <point x="104" y="110" type="curve"/>
      <point x="104" y="0"/>
      <point x="104" y="110"/>
      <point x="104" y="0" type="curve"/>
      <point x="104" y="0"/>
      <point x="104" y="0"/>
      <point x="104" y="0" type="curve"/>
    </contour>
    <contour>
      <point x="96" y="612"/>
      <point x="96" y="722"/>
      <point x="96" y="612" type="curve"/>
      <point x="150" y="612"/>
      <point x="204" y="612"/>
      <point x="258" y="612" type="curve"/>
      <point x="294" y="612"/>
      <point x="297" y="574"/>
      <point x="297" y="530" type="curve"/>
      <point x="297" y="494"/>
      <point x="289" y="459"/>
      <point x="258" y="459" type="curve"/>
      <point x="204" y="459"/>
      <point x="150" y="459"/>
      <point x="96" y="459" type="curve"/>
      <point x="96" y="348"/>
      <point x="96" y="459"/>
      <point x="96" y="348" type="curve"/>
      <point x="126" y="348"/>
      <point x="157" y="348"/>
      <point x="187" y="348" type="curve"/>
      <point x="319" y="348"/>
      <point x="440" y="408"/>
      <point x="440" y="530" type="curve"/>
      <point x="440" y="647"/>
      <point x="373" y="722"/>
      <point x="258" y="722" type="curve"/>
      <point x="204" y="722"/>
      <point x="150" y="722"/>
      <point x="96" y="722" type="curve"/>
    </contour>
    <contour>
      <point x="180" y="0"/>
      <point x="30" y="0"/>
      <point x="180" y="0" type="curve"/>
      <point x="180" y="241"/>
      <point x="180" y="481"/>
      <point x="180" y="722" type="curve"/>
      <point x="30" y="722"/>
      <point x="180" y="722"/>
      <point x="30" y="722" type="curve"/>
      <point x="30" y="481"/>
      <point x="30" y="241"/>
      <point x="30" y="0" type="curve"/>
    </contour>
    <contour>
      <point x="96" y="348"/>
      <point x="96" y="459"/>
      <point x="96" y="348" type="curve"/>
      <point x="150" y="348"/>
      <point x="204" y="348"/>
      <point x="258" y="348" type="curve"/>
      <point x="316" y="348"/>
      <point x="332" y="293"/>
      <point x="332" y="224" type="curve"/>
      <point x="332" y="160"/>
      <point x="314" y="110"/>
      <point x="257" y="110" type="curve"/>
      <point x="203" y="110"/>
      <point x="150" y="110"/>
      <point x="96" y="110" type="curve"/>
      <point x="96" y="0"/>
      <point x="96" y="110"/>
      <point x="96" y="0" type="curve"/>
      <point x="150" y="0"/>
      <point x="203" y="0"/>
      <point x="257" y="0" type="curve"/>
      <point x="396" y="0"/>
      <point x="475" y="85"/>
      <point x="475" y="224" type="curve"/>
      <point x="475" y="382"/>
      <point x="350" y="459"/>
      <point x="187" y="459" type="curve"/>
      <point x="157" y="459"/>
      <point x="126" y="459"/>
      <point x="96" y="459" type="curve"/>
    </contour>
  </outline>
</glyph>
<glyph name="C" format="1">
  <advance width="587"/>
  <unicode hex="0043"/>
  <outline>
    <contour>
      <point x="425" y="654"/>
      <point x="537" y="654"/>
      <point x="425" y="654" type="curve"/>
      <point x="425" y="654"/>
      <point x="425" y="654"/>
      <point x="425" y="654" type="curve"/>
      <point x="537" y="654"/>
      <point x="425" y="654"/>
      <point x="537" y="654" type="curve"/>
      <point x="537" y="654"/>
      <point x="537" y="654"/>
      <point x="537" y="654" type="curve"/>
    </contour>
    <contour>
      <point x="537" y="654"/>
      <point x="459" y="566"/>
      <point x="537" y="654" type="curve"/>
      <point x="480" y="696"/>
      <point x="414" y="727"/>
      <point x="337" y="727" type="curve"/>
      <point x="129" y="727"/>
      <point x="30" y="570"/>
      <point x="30" y="344" type="curve"/>
      <point x="30" y="137"/>
      <point x="123" y="-5"/>
      <point x="315" y="-5" type="curve"/>
      <point x="418" y="-5"/>
      <point x="485" y="25"/>
      <point x="557" y="93" type="curve"/>
      <point x="466" y="181"/>
      <point x="557" y="93"/>
      <point x="466" y="181" type="curve"/>
      <point x="422" y="138"/>
      <point x="384" y="110"/>
      <point x="322" y="110" type="curve"/>
      <point x="205" y="110"/>
      <point x="173" y="215"/>
      <point x="173" y="349" type="curve"/>
      <point x="173" y="495"/>
      <point x="204" y="612"/>
      <point x="330" y="612" type="curve"/>
      <point x="380" y="612"/>
      <point x="423" y="593"/>
      <point x="459" y="566" type="curve"/>
    </contour>
  </outline>
</glyph>
<glyph name="D" format="1">
  <advance width="582"/>
  <unicode hex="0044"/>
  <outline>
    <contour>
      <point x="103" y="110"/>
      <point x="103" y="0"/>
      <point x="103" y="110" type="curve"/>
      <point x="103" y="110"/>
      <point x="103" y="110"/>
      <point x="103" y="110" type="curve"/>
      <point x="103" y="0"/>
      <point x="103" y="110"/>
      <point x="103" y="0" type="curve"/>
      <point x="103" y="0"/>
      <point x="103" y="0"/>
      <point x="103" y="0" type="curve"/>
    </contour>
    <contour>
      <point x="103" y="722"/>
      <point x="103" y="612"/>
      <point x="103" y="722" type="curve"/>
      <point x="103" y="722"/>
      <point x="103" y="722"/>
      <point x="103" y="722" type="curve"/>
      <point x="103" y="612"/>
      <point x="103" y="722"/>
      <point x="103" y="612" type="curve"/>
      <point x="103" y="612"/>
      <point x="103" y="612"/>
      <point x="103" y="612" type="curve"/>
    </contour>
    <contour>
      <point x="30" y="722"/>
      <point x="173" y="722"/>
      <point x="30" y="722" type="curve"/>
      <point x="30" y="481"/>
      <point x="30" y="241"/>
      <point x="30" y="0" type="curve"/>
      <point x="173" y="0"/>
      <point x="30" y="0"/>
      <point x="173" y="0" type="curve"/>
      <point x="173" y="241"/>
      <point x="173" y="481"/>
      <point x="173" y="722" type="curve"/>
    </contour>
    <contour>
      <point x="103" y="0"/>
      <point x="103" y="110"/>
      <point x="103" y="0" type="curve"/>
      <point x="151" y="0"/>
      <point x="199" y="0"/>
      <point x="247" y="0" type="curve"/>
      <point x="456" y="0"/>
      <point x="552" y="134"/>
      <point x="552" y="354" type="curve"/>
      <point x="552" y="581"/>
      <point x="460" y="722"/>
      <point x="246" y="722" type="curve"/>
      <point x="198" y="722"/>
      <point x="151" y="722"/>
      <point x="103" y="722" type="curve"/>
      <point x="103" y="612"/>
      <point x="103" y="722"/>
      <point x="103" y="612" type="curve"/>
      <point x="149" y="612"/>
      <point x="194" y="612"/>
      <point x="240" y="612" type="curve"/>
      <point x="376" y="612"/>
      <point x="409" y="502"/>
      <point x="409" y="348" type="curve"/>
      <point x="409" y="210"/>
      <point x="382" y="110"/>
      <point x="260" y="110" type="curve"/>
      <point x="208" y="110"/>
      <point x="155" y="110"/>
      <point x="103" y="110" type="curve"/>
    </contour>
  </outline>
</glyph>
<glyph name="F" format="1">
  <advance width="431"/>
  <unicode hex="0046"/>
  <outline>
    <contour>
      <point x="101" y="0"/>
      <point x="101" y="110"/>
      <point x="101" y="0" type="curve"/>
      <point x="101" y="0"/>
      <point x="101" y="0"/>
      <point x="101" y="0" type="curve"/>
      <point x="101" y="110"/>
      <point x="101" y="0"/>
      <point x="101" y="110" type="curve"/>
      <point x="101" y="110"/>
      <point x="101" y="110"/>
      <point x="101" y="110" type="curve"/>
    </contour>
    <contour>
      <point x="346" y="372"/>
      <point x="234" y="372"/>
      <point x="346" y="372" type="curve"/>
      <point x="346" y="372"/>
      <point x="346" y="372"/>
      <point x="346" y="372" type="curve"/>
      <point x="234" y="372"/>
      <point x="346" y="372"/>
      <point x="234" y="372" type="curve"/>
      <point x="234" y="372"/>
      <point x="234" y="372"/>
      <point x="234" y="372" type="curve"/>
    </contour>
    <contour>
      <point x="101" y="722"/>
      <point x="101" y="612"/>
      <point x="101" y="722" type="curve"/>
      <point x="101" y="722"/>
      <point x="101" y="722"/>
      <point x="101" y="722" type="curve"/>
      <point x="101" y="612"/>
      <point x="101" y="722"/>
      <point x="101" y="612" type="curve"/>
      <point x="101" y="612"/>
      <point x="101" y="612"/>
      <point x="101" y="612" type="curve"/>
    </contour>
    <contour>
      <point x="234" y="372"/>
      <point x="346" y="372"/>
      <point x="234" y="372" type="curve"/>
      <point x="234" y="372"/>
      <point x="234" y="372"/>
      <point x="234" y="372" type="curve"/>
      <point x="346" y="372"/>
      <point x="234" y="372"/>
      <point x="346" y="372" type="curve"/>
      <point x="346" y="372"/>
      <point x="346" y="372"/>
      <point x="346" y="372" type="curve"/>
    </contour>
    <contour>
      <point x="101" y="110"/>
      <point x="101" y="0"/>
      <point x="101" y="110" type="curve"/>
      <point x="101" y="110"/>
      <point x="101" y="110"/>
      <point x="101" y="110" type="curve"/>
      <point x="101" y="0"/>
      <point x="101" y="110"/>
      <point x="101" y="0" type="curve"/>
      <point x="101" y="0"/>
      <point x="101" y="0"/>
      <point x="101" y="0" type="curve"/>
    </contour>
    <contour>
      <point x="289" y="667"/>
      <point x="401" y="667"/>
      <point x="289" y="667" type="curve"/>
      <point x="289" y="667"/>
      <point x="289" y="667"/>
      <point x="289" y="667" type="curve"/>
      <point x="401" y="667"/>
      <point x="289" y="667"/>
      <point x="401" y="667" type="curve"/>
      <point x="401" y="667"/>
      <point x="401" y="667"/>
      <point x="401" y="667" type="curve"/>
    </contour>
    <contour>
      <point x="104" y="317"/>
      <point x="104" y="428"/>
      <point x="104" y="317" type="curve"/>
      <point x="185" y="317"/>
      <point x="265" y="317"/>
      <point x="346" y="317" type="curve"/>
      <point x="346" y="428"/>
      <point x="346" y="317"/>
      <point x="346" y="428" type="curve"/>
      <point x="265" y="428"/>
      <point x="185" y="428"/>
      <point x="104" y="428" type="curve"/>
    </contour>
    <contour>
      <point x="173" y="0"/>
      <point x="30" y="0"/>
      <point x="173" y="0" type="curve"/>
      <point x="173" y="0"/>
      <point x="173" y="722"/>
      <point x="173" y="722" type="curve"/>
      <point x="30" y="722"/>
      <point x="173" y="722"/>
      <point x="30" y="722" type="curve"/>
      <point x="30" y="481"/>
      <point x="30" y="241"/>
      <point x="30" y="0" type="curve"/>
    </contour>
    <contour>
      <point x="93" y="612"/>
      <point x="93" y="722"/>
      <point x="93" y="612" type="curve"/>
      <point x="196" y="612"/>
      <point x="298" y="612"/>
      <point x="401" y="612" type="curve"/>
      <point x="401" y="722"/>
      <point x="401" y="612"/>
      <point x="401" y="722" type="curve"/>
      <point x="298" y="722"/>
      <point x="196" y="722"/>
      <point x="93" y="722" type="curve"/>
    </contour>
  </outline>
</glyph>
<glyph name="I" format="1">
  <advance width="203"/>
  <unicode hex="0049"/>
  <outline>
    <contour>
      <point x="102" y="722"/>
      <point x="102" y="612"/>
      <point x="102" y="722" type="curve"/>
      <point x="102" y="722"/>
      <point x="102" y="722"/>
      <point x="102" y="722" type="curve"/>
      <point x="102" y="612"/>
      <point x="102" y="722"/>
      <point x="102" y="612" type="curve"/>
      <point x="102" y="612"/>
      <point x="102" y="612"/>
      <point x="102" y="612" type="curve"/>
    </contour>
    <contour>
      <point x="102" y="612"/>
      <point x="102" y="722"/>
      <point x="102" y="612" type="curve"/>
      <point x="102" y="612"/>
      <point x="102" y="612"/>
      <point x="102" y="612" type="curve"/>
      <point x="102" y="722"/>
      <point x="102" y="612"/>
      <point x="102" y="722" type="curve"/>
      <point x="102" y="722"/>
      <point x="102" y="722"/>
      <point x="102" y="722" type="curve"/>
    </contour>
    <contour>
      <point x="102" y="0"/>
      <point x="102" y="110"/>
      <point x="102" y="0" type="curve"/>
      <point x="102" y="0"/>
      <point x="102" y="0"/>
      <point x="102" y="0" type="curve"/>
      <point x="102" y="110"/>
      <point x="102" y="0"/>
      <point x="102" y="110" type="curve"/>
      <point x="102" y="110"/>
      <point x="102" y="110"/>
      <point x="102" y="110" type="curve"/>
    </contour>
    <contour>
      <point x="102" y="110"/>
      <point x="102" y="0"/>
      <point x="102" y="110" type="curve"/>
      <point x="102" y="110"/>
      <point x="102" y="110"/>
      <point x="102" y="110" type="curve"/>
      <point x="102" y="0"/>
      <point x="102" y="110"/>
      <point x="102" y="0" type="curve"/>
      <point x="102" y="0"/>
      <point x="102" y="0"/>
      <point x="102" y="0" type="curve"/>
    </contour>
    <contour>
      <point x="173" y="0"/>
      <point x="30" y="0"/>
      <point x="173" y="0" type="curve"/>
      <point x="173" y="241"/>
      <point x="173" y="481"/>
      <point x="173" y="722" type="curve"/>
      <point x="30" y="722"/>
      <point x="173" y="722"/>
      <point x="30" y="722" type="curve"/>
      <point x="30" y="481"/>
      <point x="30" y="241"/>
      <point x="30" y="0" type="curve"/>
    </contour>
  </outline>
</glyph>
<glyph name="L" format="1">
  <advance width="447"/>
  <unicode hex="004C"/>
  <outline>
    <contour>
      <point x="417" y="55"/>
      <point x="305" y="55"/>
      <point x="417" y="55" type="curve"/>
      <point x="417" y="55"/>
      <point x="417" y="55"/>
      <point x="417" y="55" type="curve"/>
      <point x="305" y="55"/>
      <point x="417" y="55"/>
      <point x="305" y="55" type="curve"/>
      <point x="305" y="55"/>
      <point x="305" y="55"/>
      <point x="305" y="55" type="curve"/>
    </contour>
    <contour>
      <point x="101" y="110"/>
      <point x="101" y="0"/>
      <point x="101" y="110" type="curve"/>
      <point x="101" y="110"/>
      <point x="101" y="110"/>
      <point x="101" y="110" type="curve"/>
      <point x="101" y="0"/>
      <point x="101" y="110"/>
      <point x="101" y="0" type="curve"/>
      <point x="101" y="0"/>
      <point x="101" y="0"/>
      <point x="101" y="0" type="curve"/>
    </contour>
    <contour>
      <point x="101" y="722"/>
      <point x="101" y="612"/>
      <point x="101" y="722" type="curve"/>
      <point x="101" y="722"/>
      <point x="101" y="722"/>
      <point x="101" y="722" type="curve"/>
      <point x="101" y="612"/>
      <point x="101" y="722"/>
      <point x="101" y="612" type="curve"/>
      <point x="101" y="612"/>
      <point x="101" y="612"/>
      <point x="101" y="612" type="curve"/>
    </contour>
    <contour>
      <point x="101" y="612"/>
      <point x="101" y="722"/>
      <point x="101" y="612" type="curve"/>
      <point x="101" y="612"/>
      <point x="101" y="612"/>
      <point x="101" y="612" type="curve"/>
      <point x="101" y="722"/>
      <point x="101" y="612"/>
      <point x="101" y="722" type="curve"/>
      <point x="101" y="722"/>
      <point x="101" y="722"/>
      <point x="101" y="722" type="curve"/>
    </contour>
    <contour>
      <point x="173" y="0"/>
      <point x="30" y="0"/>
      <point x="173" y="0" type="curve"/>
      <point x="173" y="241"/>
      <point x="173" y="481"/>
      <point x="173" y="722" type="curve"/>
      <point x="30" y="722"/>
      <point x="173" y="722"/>
      <point x="30" y="722" type="curve"/>
      <point x="30" y="481"/>
      <point x="30" y="241"/>
      <point x="30" y="0" type="curve"/>
    </contour>
    <contour>
      <point x="101" y="0"/>
      <point x="101" y="110"/>
      <point x="101" y="0" type="curve"/>
      <point x="206" y="0"/>
      <point x="312" y="0"/>
      <point x="417" y="0" type="curve"/>
      <point x="417" y="110"/>
      <point x="417" y="0"/>
      <point x="417" y="110" type="curve"/>
      <point x="312" y="110"/>
      <point x="206" y="110"/>
      <point x="101" y="110" type="curve"/>
    </contour>
  </outline>
</glyph>
<glyph name="M" format="1">
  <advance width="709"/>
  <unicode hex="004D"/>
  <outline>
    <contour>
      <point x="608" y="0"/>
      <point x="608" y="110"/>
      <point x="608" y="0" type="curve"/>
      <point x="608" y="0"/>
      <point x="608" y="0"/>
      <point x="608" y="0" type="curve"/>
      <point x="608" y="110"/>
      <point x="608" y="0"/>
      <point x="608" y="110" type="curve"/>
      <point x="608" y="110"/>
      <point x="608" y="110"/>
      <point x="608" y="110" type="curve"/>
    </contour>
    <contour>
      <point x="608" y="110"/>
      <point x="608" y="0"/>
      <point x="608" y="110" type="curve"/>
      <point x="608" y="110"/>
      <point x="608" y="110"/>
      <point x="608" y="110" type="curve"/>
      <point x="608" y="0"/>
      <point x="608" y="110"/>
      <point x="608" y="0" type="curve"/>
      <point x="608" y="0"/>
      <point x="608" y="0"/>
      <point x="608" y="0" type="curve"/>
    </contour>
    <contour>
      <point x="92" y="110"/>
      <point x="91" y="0"/>
      <point x="92" y="110" type="curve"/>
      <point x="92" y="110"/>
      <point x="92" y="110"/>
      <point x="92" y="110" type="curve"/>
      <point x="91" y="0"/>
      <point x="92" y="110"/>
      <point x="91" y="0" type="curve"/>
      <point x="91" y="0"/>
      <point x="91" y="0"/>
      <point x="91" y="0" type="curve"/>
    </contour>
    <contour>
      <point x="136" y="722"/>
      <point x="136" y="612"/>
      <point x="136" y="722" type="curve"/>
      <point x="136" y="722"/>
      <point x="136" y="722"/>
      <point x="136" y="722" type="curve"/>
      <point x="136" y="612"/>
      <point x="136" y="722"/>
      <point x="136" y="612" type="curve"/>
      <point x="136" y="612"/>
      <point x="136" y="612"/>
      <point x="136" y="612" type="curve"/>
    </contour>
    <contour>
      <point x="563" y="612"/>
      <point x="563" y="722"/>
      <point x="563" y="612" type="curve"/>
      <point x="563" y="612"/>
      <point x="563" y="612"/>
      <point x="563" y="612" type="curve"/>
      <point x="563" y="722"/>
      <point x="563" y="612"/>
      <point x="563" y="722" type="curve"/>
      <point x="563" y="722"/>
      <point x="563" y="722"/>
      <point x="563" y="722" type="curve"/>
    </contour>
    <contour>
      <point x="92" y="0"/>
      <point x="92" y="110"/>
      <point x="92" y="0" type="curve"/>
      <point x="92" y="0"/>
      <point x="92" y="0"/>
      <point x="92" y="0" type="curve"/>
      <point x="92" y="110"/>
      <point x="92" y="0"/>
      <point x="92" y="110" type="curve"/>
      <point x="92" y="110"/>
      <point x="92" y="110"/>
      <point x="92" y="110" type="curve"/>
    </contour>
    <contour>
      <point x="679" y="0"/>
      <point x="536" y="0"/>
      <point x="679" y="0" type="curve"/>
      <point x="663" y="241"/>
      <point x="642" y="481"/>
      <point x="627" y="722" type="curve"/>
      <point x="497" y="722"/>
      <point x="627" y="722"/>
      <point x="497" y="722" type="curve"/>
      <point x="512" y="481"/>
      <point x="521" y="241"/>
      <point x="536" y="0" type="curve"/>
    </contour>
    <contour>
      <point x="152" y="0"/>
      <point x="30" y="0"/>
      <point x="152" y="0" type="curve"/>
      <point x="166" y="241"/>
      <point x="180" y="481"/>
      <point x="194" y="722" type="curve"/>
      <point x="74" y="722"/>
      <point x="194" y="722"/>
      <point x="74" y="722" type="curve"/>
      <point x="59" y="481"/>
      <point x="45" y="241"/>
      <point x="30" y="0" type="curve"/>
    </contour>
    <contour>
      <point x="407" y="0"/>
      <point x="286" y="0"/>
      <point x="407" y="0" type="curve"/>
      <point x="337" y="241"/>
      <point x="266" y="481"/>
      <point x="196" y="722" type="curve"/>
      <point x="76" y="722"/>
      <point x="196" y="722"/>
      <point x="76" y="722" type="curve"/>
      <point x="146" y="481"/>
      <point x="216" y="241"/>
      <point x="286" y="0" type="curve"/>
    </contour>
    <contour>
      <point x="414" y="0"/>
      <point x="292" y="0"/>
      <point x="414" y="0" type="curve"/>
      <point x="483" y="241"/>
      <point x="552" y="481"/>
      <point x="620" y="722" type="curve"/>
      <point x="500" y="722"/>
      <point x="620" y="722"/>
      <point x="500" y="722" type="curve"/>
      <point x="431" y="481"/>
      <point x="361" y="241"/>
      <point x="292" y="0" type="curve"/>
    </contour>
  </outline>
</glyph>
<glyph name="X" format="1">
  <advance width="603"/>
  <unicode hex="0058"/>
  <outline>
    <contour>
      <point x="114" y="0"/>
      <point x="114" y="110"/>
      <point x="114" y="0" type="curve"/>
      <point x="114" y="0"/>
      <point x="114" y="0"/>
      <point x="114" y="0" type="curve"/>
      <point x="114" y="110"/>
      <point x="114" y="0"/>
      <point x="114" y="110" type="curve"/>
      <point x="114" y="110"/>
      <point x="114" y="110"/>
      <point x="114" y="110" type="curve"/>
    </contour>
    <contour>
      <point x="114" y="110"/>
      <point x="114" y="0"/>
      <point x="114" y="110" type="curve"/>
      <point x="114" y="110"/>
      <point x="114" y="110"/>
      <point x="114" y="110" type="curve"/>
      <point x="114" y="0"/>
      <point x="114" y="110"/>
      <point x="114" y="0" type="curve"/>
      <point x="114" y="0"/>
      <point x="114" y="0"/>
      <point x="114" y="0" type="curve"/>
    </contour>
    <contour>
      <point x="488" y="0"/>
      <point x="488" y="110"/>
      <point x="488" y="0" type="curve"/>
      <point x="488" y="0"/>
      <point x="488" y="0"/>
      <point x="488" y="0" type="curve"/>
      <point x="488" y="110"/>
      <point x="488" y="0"/>
      <point x="488" y="110" type="curve"/>
      <point x="488" y="110"/>
      <point x="488" y="110"/>
      <point x="488" y="110" type="curve"/>
    </contour>
    <contour>
      <point x="488" y="110"/>
      <point x="488" y="0"/>
      <point x="488" y="110" type="curve"/>
      <point x="488" y="110"/>
      <point x="488" y="110"/>
      <point x="488" y="110" type="curve"/>
      <point x="488" y="0"/>
      <point x="488" y="110"/>
      <point x="488" y="0" type="curve"/>
      <point x="488" y="0"/>
      <point x="488" y="0"/>
      <point x="488" y="0" type="curve"/>
    </contour>
    <contour>
      <point x="468" y="612"/>
      <point x="468" y="722"/>
      <point x="468" y="612" type="curve"/>
      <point x="468" y="612"/>
      <point x="468" y="612"/>
      <point x="468" y="612" type="curve"/>
      <point x="468" y="722"/>
      <point x="468" y="612"/>
      <point x="468" y="722" type="curve"/>
      <point x="468" y="722"/>
      <point x="468" y="722"/>
      <point x="468" y="722" type="curve"/>
    </contour>
    <contour>
      <point x="468" y="722"/>
      <point x="468" y="612"/>
      <point x="468" y="722" type="curve"/>
      <point x="468" y="722"/>
      <point x="468" y="722"/>
      <point x="468" y="722" type="curve"/>
      <point x="468" y="612"/>
      <point x="468" y="722"/>
      <point x="468" y="612" type="curve"/>
      <point x="468" y="612"/>
      <point x="468" y="612"/>
      <point x="468" y="612" type="curve"/>
    </contour>
    <contour>
      <point x="136" y="722"/>
      <point x="136" y="612"/>
      <point x="136" y="722" type="curve"/>
      <point x="136" y="722"/>
      <point x="136" y="722"/>
      <point x="136" y="722" type="curve"/>
      <point x="136" y="612"/>
      <point x="136" y="722"/>
      <point x="136" y="612" type="curve"/>
      <point x="136" y="612"/>
      <point x="136" y="612"/>
      <point x="136" y="612" type="curve"/>
    </contour>
    <contour>
      <point x="136" y="612"/>
      <point x="136" y="722"/>
      <point x="136" y="612" type="curve"/>
      <point x="136" y="612"/>
      <point x="136" y="612"/>
      <point x="136" y="612" type="curve"/>
      <point x="136" y="722"/>
      <point x="136" y="612"/>
      <point x="136" y="722" type="curve"/>
      <point x="136" y="722"/>
      <point x="136" y="722"/>
      <point x="136" y="722" type="curve"/>
    </contour>
    <contour>
      <point x="405" y="722"/>
      <point x="552" y="722"/>
      <point x="405" y="722" type="curve"/>
      <point x="280" y="481"/>
      <point x="155" y="241"/>
      <point x="30" y="0" type="curve"/>
      <point x="180" y="0"/>
      <point x="30" y="0"/>
      <point x="180" y="0" type="curve"/>
      <point x="304" y="241"/>
      <point x="428" y="481"/>
      <point x="552" y="722" type="curve"/>
    </contour>
    <contour>
      <point x="55" y="722"/>
      <point x="202" y="722"/>
      <point x="55" y="722" type="curve"/>
      <point x="178" y="481"/>
      <point x="301" y="241"/>
      <point x="424" y="0" type="curve"/>
      <point x="573" y="0"/>
      <point x="424" y="0"/>
      <point x="573" y="0" type="curve"/>
      <point x="449" y="241"/>
      <point x="326" y="481"/>
      <point x="202" y="722" type="curve"/>
    </contour>
  </outline>
</glyph>
<glyph name="Y" format="1">
  <advance width="568"/>
  <unicode hex="0059"/>
  <outline>
    <contour>
      <point x="279" y="110"/>
      <point x="279" y="0"/>
      <point x="279" y="110" type="curve"/>
      <point x="279" y="110"/>
      <point x="279" y="110"/>
      <point x="279" y="110" type="curve"/>
      <point x="279" y="0"/>
      <point x="279" y="110"/>
      <point x="279" y="0" type="curve"/>
      <point x="279" y="0"/>
      <point x="279" y="0"/>
      <point x="279" y="0" type="curve"/>
    </contour>
    <contour>
      <point x="279" y="0"/>
      <point x="279" y="110"/>
      <point x="279" y="0" type="curve"/>
      <point x="279" y="0"/>
      <point x="279" y="0"/>
      <point x="279" y="0" type="curve"/>
      <point x="279" y="110"/>
      <point x="279" y="0"/>
      <point x="279" y="110" type="curve"/>
      <point x="279" y="110"/>
      <point x="279" y="110"/>
      <point x="279" y="110" type="curve"/>
    </contour>
    <contour>
      <point x="456" y="722"/>
      <point x="456" y="612"/>
      <point x="456" y="722" type="curve"/>
      <point x="456" y="722"/>
      <point x="456" y="722"/>
      <point x="456" y="722" type="curve"/>
      <point x="456" y="612"/>
      <point x="456" y="722"/>
      <point x="456" y="612" type="curve"/>
      <point x="456" y="612"/>
      <point x="456" y="612"/>
      <point x="456" y="612" type="curve"/>
    </contour>
    <contour>
      <point x="111" y="722"/>
      <point x="111" y="612"/>
      <point x="111" y="722" type="curve"/>
      <point x="111" y="722"/>
      <point x="111" y="722"/>
      <point x="111" y="722" type="curve"/>
      <point x="111" y="612"/>
      <point x="111" y="722"/>
      <point x="111" y="612" type="curve"/>
      <point x="111" y="612"/>
      <point x="111" y="612"/>
      <point x="111" y="612" type="curve"/>
    </contour>
    <contour>
      <point x="111" y="612"/>
      <point x="111" y="722"/>
      <point x="111" y="612" type="curve"/>
      <point x="111" y="612"/>
      <point x="111" y="612"/>
      <point x="111" y="612" type="curve"/>
      <point x="111" y="722"/>
      <point x="111" y="612"/>
      <point x="111" y="722" type="curve"/>
      <point x="111" y="722"/>
      <point x="111" y="722"/>
      <point x="111" y="722" type="curve"/>
    </contour>
    <contour>
      <point x="456" y="612"/>
      <point x="456" y="722"/>
      <point x="456" y="612" type="curve"/>
      <point x="456" y="612"/>
      <point x="456" y="612"/>
      <point x="456" y="612" type="curve"/>
      <point x="456" y="722"/>
      <point x="456" y="612"/>
      <point x="456" y="722" type="curve"/>
      <point x="456" y="722"/>
      <point x="456" y="722"/>
      <point x="456" y="722" type="curve"/>
    </contour>
    <contour>
      <point x="30" y="722"/>
      <point x="175" y="722"/>
      <point x="30" y="722" type="curve"/>
      <point x="89" y="594"/>
      <point x="147" y="465"/>
      <point x="206" y="337" type="curve"/>
      <point x="351" y="337"/>
      <point x="206" y="337"/>
      <point x="351" y="337" type="curve"/>
      <point x="292" y="465"/>
      <point x="234" y="594"/>
      <point x="175" y="722" type="curve"/>
    </contour>
    <contour>
      <point x="392" y="722"/>
      <point x="537" y="722"/>
      <point x="392" y="722" type="curve"/>
      <point x="330" y="594"/>
      <point x="268" y="465"/>
      <point x="206" y="337" type="curve"/>
      <point x="351" y="337"/>
      <point x="206" y="337"/>
      <point x="351" y="337" type="curve"/>
      <point x="413" y="465"/>
      <point x="475" y="594"/>
      <point x="537" y="722" type="curve"/>
    </contour>
    <contour>
      <point x="357" y="0"/>
      <point x="201" y="0"/>
      <point x="357" y="0" type="curve"/>
      <point x="357" y="115"/>
      <point x="357" y="231"/>
      <point x="357" y="346" type="curve"/>
      <point x="201" y="346"/>
      <point x="357" y="346"/>
      <point x="201" y="346" type="curve"/>
      <point x="201" y="231"/>
      <point x="201" y="115"/>
      <point x="201" y="0" type="curve"/>
    </contour>
  </outline>
</glyph>
<glyph name="Z" format="1">
  <advance width="560"/>
  <unicode hex="005A"/>
  <outline>
    <contour>
      <point x="109" y="667"/>
      <point x="192" y="667"/>
      <point x="80" y="667" type="curve"/>
      <point x="80" y="667"/>
      <point x="80" y="667"/>
      <point x="80" y="667" type="curve"/>
      <point x="192" y="667"/>
      <point x="109" y="667"/>
      <point x="221" y="667" type="curve"/>
      <point x="221" y="667"/>
      <point x="221" y="667"/>
      <point x="221" y="667" type="curve"/>
    </contour>
    <contour>
      <point x="517" y="55"/>
      <point x="405" y="55"/>
      <point x="517" y="55" type="curve"/>
      <point x="517" y="55"/>
      <point x="517" y="55"/>
      <point x="517" y="55" type="curve"/>
      <point x="405" y="55"/>
      <point x="517" y="55"/>
      <point x="405" y="55" type="curve"/>
      <point x="405" y="55"/>
      <point x="405" y="55"/>
      <point x="405" y="55" type="curve"/>
    </contour>
    <contour>
      <point x="80" y="612"/>
      <point x="80" y="722"/>
      <point x="80" y="612" type="curve"/>
      <point x="201" y="612"/>
      <point x="351" y="612"/>
      <point x="473" y="612" type="curve"/>
      <point x="461" y="622"/>
      <point x="442" y="620"/>
      <point x="431" y="631" type="curve"/>
      <point x="420" y="640"/>
      <point x="423" y="658"/>
      <point x="413" y="668" type="curve"/>
      <point x="406" y="658"/>
      <point x="390" y="668"/>
      <point x="384" y="658" type="curve"/>
      <point x="267" y="475"/>
      <point x="384" y="658"/>
      <point x="30" y="110" type="curve"/>
      <point x="30" y="54"/>
      <point x="30" y="110"/>
      <point x="30" y="54" type="curve"/>
      <point x="30" y="0"/>
      <point x="30" y="54"/>
      <point x="30" y="0" type="curve"/>
      <point x="83" y="0"/>
      <point x="30" y="0"/>
      <point x="83" y="0" type="curve"/>
      <point x="517" y="0"/>
      <point x="372" y="0"/>
      <point x="517" y="0" type="curve"/>
      <point x="517" y="110"/>
      <point x="517" y="0"/>
      <point x="517" y="110" type="curve"/>
      <point x="372" y="110"/>
      <point x="227" y="110"/>
      <point x="83" y="110" type="curve"/>
      <point x="93" y="102"/>
      <point x="109" y="103"/>
      <point x="119" y="95" type="curve"/>
      <point x="130" y="84"/>
      <point x="129" y="65"/>
      <point x="140" y="54" type="curve"/>
      <point x="147" y="64"/>
      <point x="163" y="55"/>
      <point x="170" y="64" type="curve"/>
      <point x="288" y="248"/>
      <point x="170" y="64"/>
      <point x="530" y="612" type="curve"/>
      <point x="530" y="668"/>
      <point x="530" y="612"/>
      <point x="530" y="668" type="curve"/>
      <point x="530" y="722"/>
      <point x="530" y="668"/>
      <point x="530" y="722" type="curve"/>
      <point x="473" y="722"/>
      <point x="530" y="722"/>
      <point x="473" y="722" type="curve"/>
      <point x="351" y="722"/>
      <point x="201" y="722"/>
      <point x="80" y="722" type="curve"/>
    </contour>
  </outline>
</glyph>
<glyph name="b" format="1">
  <advance width="518"/>
  <unicode hex="0062"/>
  <outline>
    <contour>
      <point x="103" y="799"/>
      <point x="103" y="689"/>
      <point x="103" y="799" type="curve"/>
      <point x="103" y="799"/>
      <point x="103" y="799"/>
      <point x="103" y="799" type="curve"/>
      <point x="103" y="689"/>
      <point x="103" y="799"/>
      <point x="103" y="689" type="curve"/>
      <point x="103" y="689"/>
      <point x="103" y="689"/>
      <point x="103" y="689" type="curve"/>
    </contour>
    <contour>
      <point x="140" y="349"/>
      <point x="105" y="431"/>
      <point x="140" y="349" type="curve"/>
      <point x="163" y="379"/>
      <point x="203" y="423"/>
      <point x="258" y="423" type="curve"/>
      <point x="331" y="423"/>
      <point x="345" y="346"/>
      <point x="345" y="261" type="curve"/>
      <point x="347" y="180"/>
      <point x="329" y="110"/>
      <point x="260" y="110" type="curve"/>
      <point x="214" y="110"/>
      <point x="181" y="130"/>
      <point x="151" y="165" type="curve"/>
      <point x="95" y="99"/>
      <point x="151" y="165"/>
      <point x="95" y="99" type="curve"/>
      <point x="150" y="31"/>
      <point x="215" y="0"/>
      <point x="303" y="0" type="curve"/>
      <point x="433" y="0"/>
      <point x="488" y="121"/>
      <point x="488" y="267" type="curve"/>
      <point x="488" y="412"/>
      <point x="436" y="533"/>
      <point x="307" y="533" type="curve"/>
      <point x="217" y="533"/>
      <point x="141" y="482"/>
      <point x="105" y="431" type="curve"/>
    </contour>
    <contour>
      <point x="173" y="0"/>
      <point x="30" y="0"/>
      <point x="173" y="0" type="curve"/>
      <point x="173" y="267"/>
      <point x="173" y="533"/>
      <point x="173" y="800" type="curve"/>
      <point x="30" y="800"/>
      <point x="173" y="800"/>
      <point x="30" y="800" type="curve"/>
      <point x="30" y="533"/>
      <point x="30" y="267"/>
      <point x="30" y="0" type="curve"/>
    </contour>
    <contour>
      <point x="103" y="110"/>
      <point x="103" y="-1"/>
      <point x="103" y="110" type="curve"/>
      <point x="103" y="110"/>
      <point x="103" y="110"/>
      <point x="103" y="110" type="curve"/>
      <point x="103" y="-1"/>
      <point x="103" y="110"/>
      <point x="103" y="-1" type="curve"/>
      <point x="103" y="-1"/>
      <point x="103" y="-1"/>
      <point x="103" y="-1" type="curve"/>
    </contour>
  </outline>
</glyph>
<glyph name="i" format="1">
  <advance width="229"/>
  <unicode hex="0069"/>
  <outline>
    <contour>
      <point x="115" y="110"/>
      <point x="115" y="0"/>
      <point x="115" y="110" type="curve"/>
      <point x="115" y="110"/>
      <point x="115" y="110"/>
      <point x="115" y="110" type="curve"/>
      <point x="115" y="0"/>
      <point x="115" y="110"/>
      <point x="115" y="0" type="curve"/>
      <point x="115" y="0"/>
      <point x="115" y="0"/>
      <point x="115" y="0" type="curve"/>
    </contour>
    <contour>
      <point x="115" y="0"/>
      <point x="115" y="110"/>
      <point x="115" y="0" type="curve"/>
      <point x="115" y="0"/>
      <point x="115" y="0"/>
      <point x="115" y="0" type="curve"/>
      <point x="115" y="110"/>
      <point x="115" y="0"/>
      <point x="115" y="110" type="curve"/>
      <point x="115" y="110"/>
      <point x="115" y="110"/>
      <point x="115" y="110" type="curve"/>
    </contour>
    <contour>
      <point x="115" y="533"/>
      <point x="115" y="423"/>
      <point x="115" y="533" type="curve"/>
      <point x="115" y="533"/>
      <point x="115" y="533"/>
      <point x="115" y="533" type="curve"/>
      <point x="115" y="423"/>
      <point x="115" y="533"/>
      <point x="115" y="423" type="curve"/>
      <point x="115" y="423"/>
      <point x="115" y="423"/>
      <point x="115" y="423" type="curve"/>
    </contour>
    <contour>
      <point x="198" y="670"/>
      <point x="30" y="670"/>
      <point x="198" y="670" type="curve"/>
      <point x="198" y="718"/>
      <point x="163" y="742"/>
      <point x="113" y="742" type="curve"/>
      <point x="64" y="742"/>
      <point x="30" y="715"/>
      <point x="30" y="670" type="curve"/>
      <point x="198" y="670"/>
      <point x="30" y="670"/>
      <point x="198" y="670" type="curve"/>
      <point x="198" y="621"/>
      <point x="163" y="599"/>
      <point x="113" y="599" type="curve"/>
      <point x="63" y="599"/>
      <point x="30" y="623"/>
      <point x="30" y="670" type="curve"/>
    </contour>
    <contour>
      <point x="190" y="0"/>
      <point x="40" y="0"/>
      <point x="190" y="0" type="curve"/>
      <point x="190" y="178"/>
      <point x="190" y="355"/>
      <point x="190" y="533" type="curve"/>
      <point x="40" y="533"/>
      <point x="190" y="533"/>
      <point x="40" y="533" type="curve"/>
      <point x="40" y="355"/>
      <point x="40" y="178"/>
      <point x="40" y="0" type="curve"/>
    </contour>
  </outline>
</glyph>
<glyph name="l" format="1">
  <advance width="203"/>
  <unicode hex="006C"/>
  <outline>
    <contour>
      <point x="102" y="110"/>
      <point x="102" y="-1"/>
      <point x="102" y="110" type="curve"/>
      <point x="102" y="110"/>
      <point x="102" y="110"/>
      <point x="102" y="110" type="curve"/>
      <point x="102" y="-1"/>
      <point x="102" y="110"/>
      <point x="102" y="-1" type="curve"/>
      <point x="102" y="-1"/>
      <point x="102" y="-1"/>
      <point x="102" y="-1" type="curve"/>
    </contour>
    <contour>
      <point x="104" y="799"/>
      <point x="104" y="689"/>
      <point x="104" y="799" type="curve"/>
      <point x="104" y="799"/>
      <point x="104" y="799"/>
      <point x="104" y="799" type="curve"/>
      <point x="104" y="689"/>
      <point x="104" y="799"/>
      <point x="104" y="689" type="curve"/>
      <point x="104" y="689"/>
      <point x="104" y="689"/>
      <point x="104" y="689" type="curve"/>
    </contour>
    <contour>
      <point x="102" y="-1"/>
      <point x="102" y="110"/>
      <point x="102" y="-1" type="curve"/>
      <point x="102" y="-1"/>
      <point x="102" y="-1"/>
      <point x="102" y="-1" type="curve"/>
      <point x="102" y="110"/>
      <point x="102" y="-1"/>
      <point x="102" y="110" type="curve"/>
      <point x="102" y="110"/>
      <point x="102" y="110"/>
      <point x="102" y="110" type="curve"/>
    </contour>
    <contour>
      <point x="173" y="0"/>
      <point x="30" y="0"/>
      <point x="173" y="0" type="curve"/>
      <point x="173" y="267"/>
      <point x="173" y="533"/>
      <point x="173" y="800" type="curve"/>
      <point x="30" y="800"/>
      <point x="173" y="800"/>
      <point x="30" y="800" type="curve"/>
      <point x="30" y="533"/>
      <point x="30" y="267"/>
      <point x="30" y="0" type="curve"/>
    </contour>
  </outline>
</glyph>
<glyph name="m" format="1">
  <advance width="701"/>
  <unicode hex="006D"/>
  <outline>
    <contour>
      <point x="350" y="0"/>
      <point x="350" y="110"/>
      <point x="350" y="0" type="curve"/>
      <point x="350" y="0"/>
      <point x="350" y="0"/>
      <point x="350" y="0" type="curve"/>
      <point x="350" y="110"/>
      <point x="350" y="0"/>
      <point x="350" y="110" type="curve"/>
      <point x="350" y="110"/>
      <point x="350" y="110"/>
      <point x="350" y="110" type="curve"/>
    </contour>
    <contour>
      <point x="350" y="110"/>
      <point x="350" y="0"/>
      <point x="350" y="110" type="curve"/>
      <point x="350" y="110"/>
      <point x="350" y="110"/>
      <point x="350" y="110" type="curve"/>
      <point x="350" y="0"/>
      <point x="350" y="110"/>
      <point x="350" y="0" type="curve"/>
      <point x="350" y="0"/>
      <point x="350" y="0"/>
      <point x="350" y="0" type="curve"/>
    </contour>
    <contour>
      <point x="600" y="0"/>
      <point x="600" y="110"/>
      <point x="600" y="0" type="curve"/>
      <point x="600" y="0"/>
      <point x="600" y="0"/>
      <point x="600" y="0" type="curve"/>
      <point x="600" y="110"/>
      <point x="600" y="0"/>
      <point x="600" y="110" type="curve"/>
      <point x="600" y="110"/>
      <point x="600" y="110"/>
      <point x="600" y="110" type="curve"/>
    </contour>
    <contour>
      <point x="101" y="110"/>
      <point x="101" y="0"/>
      <point x="101" y="110" type="curve"/>
      <point x="101" y="110"/>
      <point x="101" y="110"/>
      <point x="101" y="110" type="curve"/>
      <point x="101" y="0"/>
      <point x="101" y="110"/>
      <point x="101" y="0" type="curve"/>
      <point x="101" y="0"/>
      <point x="101" y="0"/>
      <point x="101" y="0" type="curve"/>
    </contour>
    <contour>
      <point x="101" y="0"/>
      <point x="101" y="110"/>
      <point x="101" y="0" type="curve"/>
      <point x="101" y="0"/>
      <point x="101" y="0"/>
      <point x="101" y="0" type="curve"/>
      <point x="101" y="110"/>
      <point x="101" y="0"/>
      <point x="101" y="110" type="curve"/>
      <point x="101" y="110"/>
      <point x="101" y="110"/>
      <point x="101" y="110" type="curve"/>
    </contour>
    <contour>
      <point x="101" y="533"/>
      <point x="101" y="423"/>
      <point x="101" y="533" type="curve"/>
      <point x="101" y="533"/>
      <point x="101" y="533"/>
      <point x="101" y="533" type="curve"/>
      <point x="101" y="423"/>
      <point x="101" y="533"/>
      <point x="101" y="423" type="curve"/>
      <point x="101" y="423"/>
      <point x="101" y="423"/>
      <point x="101" y="423" type="curve"/>
    </contour>
    <contour>
      <point x="600" y="110"/>
      <point x="600" y="0"/>
      <point x="600" y="110" type="curve"/>
      <point x="600" y="110"/>
      <point x="600" y="110"/>
      <point x="600" y="110" type="curve"/>
      <point x="600" y="0"/>
      <point x="600" y="110"/>
      <point x="600" y="0" type="curve"/>
      <point x="600" y="0"/>
      <point x="600" y="0"/>
      <point x="600" y="0" type="curve"/>
    </contour>
    <contour>
      <point x="389" y="301"/>
      <point x="354" y="356"/>
      <point x="389" y="301" type="curve"/>
      <point x="408" y="360"/>
      <point x="422" y="423"/>
      <point x="480" y="423" type="curve"/>
      <point x="537" y="423"/>
      <point x="528" y="374"/>
      <point x="528" y="308" type="curve"/>
      <point x="528" y="205"/>
      <point x="528" y="103"/>
      <point x="528" y="0" type="curve"/>
      <point x="671" y="0"/>
      <point x="528" y="0"/>
      <point x="671" y="0" type="curve"/>
      <point x="671" y="106"/>
      <point x="671" y="213"/>
      <point x="671" y="319" type="curve"/>
      <point x="671" y="448"/>
      <point x="661" y="533"/>
      <point x="548" y="533" type="curve"/>
      <point x="445" y="533"/>
      <point x="377" y="459"/>
      <point x="354" y="356" type="curve"/>
    </contour>
    <contour>
      <point x="140" y="301"/>
      <point x="105" y="356"/>
      <point x="140" y="301" type="curve"/>
      <point x="159" y="361"/>
      <point x="172" y="423"/>
      <point x="231" y="423" type="curve"/>
      <point x="288" y="423"/>
      <point x="279" y="374"/>
      <point x="279" y="308" type="curve"/>
      <point x="279" y="205"/>
      <point x="279" y="103"/>
      <point x="279" y="0" type="curve"/>
      <point x="422" y="0"/>
      <point x="279" y="0"/>
      <point x="422" y="0" type="curve"/>
      <point x="422" y="106"/>
      <point x="422" y="213"/>
      <point x="422" y="319" type="curve"/>
      <point x="422" y="448"/>
      <point x="412" y="533"/>
      <point x="299" y="533" type="curve"/>
      <point x="195" y="533"/>
      <point x="129" y="460"/>
      <point x="105" y="356" type="curve"/>
    </contour>
    <contour>
      <point x="173" y="0"/>
      <point x="30" y="0"/>
      <point x="173" y="0" type="curve"/>
      <point x="173" y="178"/>
      <point x="173" y="355"/>
      <point x="173" y="533" type="curve"/>
      <point x="30" y="533"/>
      <point x="173" y="533"/>
      <point x="30" y="533" type="curve"/>
      <point x="30" y="355"/>
      <point x="30" y="178"/>
      <point x="30" y="0" type="curve"/>
    </contour>
  </outline>
</glyph>
<glyph name="n" format="1">
  <advance width="482"/>
  <unicode hex="006E"/>
  <outline>
    <contour>
      <point x="141" y="301"/>
      <point x="105" y="356"/>
      <point x="141" y="301" type="curve"/>
      <point x="159" y="360"/>
      <point x="188" y="423"/>
      <point x="246" y="423" type="curve"/>
      <point x="302" y="423"/>
      <point x="309" y="372"/>
      <point x="309" y="308" type="curve"/>
      <point x="309" y="205"/>
      <point x="309" y="103"/>
      <point x="309" y="0" type="curve"/>
      <point x="452" y="0"/>
      <point x="309" y="0"/>
      <point x="452" y="0" type="curve"/>
      <point x="452" y="106"/>
      <point x="452" y="213"/>
      <point x="452" y="319" type="curve"/>
      <point x="452" y="443"/>
      <point x="424" y="533"/>
      <point x="314" y="533" type="curve"/>
      <point x="212" y="533"/>
      <point x="128" y="457"/>
      <point x="105" y="356" type="curve"/>
    </contour>
    <contour>
      <point x="380" y="0"/>
      <point x="380" y="110"/>
      <point x="380" y="0" type="curve"/>
      <point x="380" y="0"/>
      <point x="380" y="0"/>
      <point x="380" y="0" type="curve"/>
      <point x="380" y="110"/>
      <point x="380" y="0"/>
      <point x="380" y="110" type="curve"/>
      <point x="380" y="110"/>
      <point x="380" y="110"/>
      <point x="380" y="110" type="curve"/>
    </contour>
    <contour>
      <point x="102" y="110"/>
      <point x="101" y="0"/>
      <point x="102" y="110" type="curve"/>
      <point x="102" y="110"/>
      <point x="102" y="110"/>
      <point x="102" y="110" type="curve"/>
      <point x="101" y="0"/>
      <point x="102" y="110"/>
      <point x="101" y="0" type="curve"/>
      <point x="101" y="0"/>
      <point x="101" y="0"/>
      <point x="101" y="0" type="curve"/>
    </contour>
    <contour>
      <point x="102" y="0"/>
      <point x="102" y="110"/>
      <point x="102" y="0" type="curve"/>
      <point x="102" y="0"/>
      <point x="102" y="0"/>
      <point x="102" y="0" type="curve"/>
      <point x="102" y="110"/>
      <point x="102" y="0"/>
      <point x="102" y="110" type="curve"/>
      <point x="102" y="110"/>
      <point x="102" y="110"/>
      <point x="102" y="110" type="curve"/>
    </contour>
    <contour>
      <point x="173" y="0"/>
      <point x="30" y="0"/>
      <point x="173" y="0" type="curve"/>
      <point x="173" y="178"/>
      <point x="173" y="355"/>
      <point x="173" y="533" type="curve"/>
      <point x="30" y="533"/>
      <point x="173" y="533"/>
      <point x="30" y="533" type="curve"/>
      <point x="30" y="355"/>
      <point x="30" y="178"/>
      <point x="30" y="0" type="curve"/>
    </contour>
    <contour>
      <point x="102" y="533"/>
      <point x="101" y="423"/>
      <point x="102" y="533" type="curve"/>
      <point x="102" y="533"/>
      <point x="102" y="533"/>
      <point x="102" y="533" type="curve"/>
      <point x="101" y="423"/>
      <point x="102" y="533"/>
      <point x="101" y="423" type="curve"/>
      <point x="101" y="423"/>
      <point x="101" y="423"/>
      <point x="101" y="423" type="curve"/>
    </contour>
    <contour>
      <point x="380" y="110"/>
      <point x="380" y="0"/>
      <point x="380" y="110" type="curve"/>
      <point x="380" y="110"/>
      <point x="380" y="110"/>
      <point x="380" y="110" type="curve"/>
      <point x="380" y="0"/>
      <point x="380" y="110"/>
      <point x="380" y="0" type="curve"/>
      <point x="380" y="0"/>
      <point x="380" y="0"/>
      <point x="380" y="0" type="curve"/>
    </contour>
  </outline>
</glyph>
<glyph name="o" format="1">
  <advance width="526"/>
  <unicode hex="006F"/>
  <outline>
    <contour>
      <point x="173" y="271"/>
      <point x="30" y="265"/>
      <point x="173" y="271" type="curve"/>
      <point x="173" y="354"/>
      <point x="186" y="423"/>
      <point x="258" y="423" type="curve"/>
      <point x="334" y="423"/>
      <point x="353" y="353"/>
      <point x="353" y="265" type="curve"/>
      <point x="353" y="180"/>
      <point x="340" y="110"/>
      <point x="266" y="110" type="curve"/>
      <point x="189" y="111"/>
      <point x="173" y="182"/>
      <point x="173" y="271" type="curve"/>
      <point x="30" y="265"/>
      <point x="173" y="271"/>
      <point x="30" y="265" type="curve"/>
      <point x="30" y="105"/>
      <point x="108" y="-5"/>
      <point x="260" y="-5" type="curve"/>
      <point x="415" y="-5"/>
      <point x="496" y="103"/>
      <point x="496" y="265" type="curve"/>
      <point x="496" y="427"/>
      <point x="417" y="538"/>
      <point x="264" y="538" type="curve"/>
      <point x="109" y="538"/>
      <point x="30" y="428"/>
      <point x="30" y="265" type="curve"/>
    </contour>
  </outline>
</glyph>
<glyph name="p" format="1">
  <advance width="518"/>
  <unicode hex="0070"/>
  <outline>
    <contour>
      <point x="101" y="-188"/>
      <point x="101" y="-299"/>
      <point x="101" y="-188" type="curve"/>
      <point x="101" y="-188"/>
      <point x="101" y="-188"/>
      <point x="101" y="-188" type="curve"/>
      <point x="101" y="-299"/>
      <point x="101" y="-188"/>
      <point x="101" y="-299" type="curve"/>
      <point x="101" y="-299"/>
      <point x="101" y="-299"/>
      <point x="101" y="-299" type="curve"/>
    </contour>
    <contour>
      <point x="101" y="-299"/>
      <point x="101" y="-188"/>
      <point x="101" y="-299" type="curve"/>
      <point x="101" y="-299"/>
      <point x="101" y="-299"/>
      <point x="101" y="-299" type="curve"/>
      <point x="101" y="-188"/>
      <point x="101" y="-299"/>
      <point x="101" y="-188" type="curve"/>
      <point x="101" y="-188"/>
      <point x="101" y="-188"/>
      <point x="101" y="-188" type="curve"/>
    </contour>
    <contour>
      <point x="102" y="534"/>
      <point x="102" y="424"/>
      <point x="102" y="534" type="curve"/>
      <point x="102" y="534"/>
      <point x="102" y="534"/>
      <point x="102" y="534" type="curve"/>
      <point x="102" y="424"/>
      <point x="102" y="534"/>
      <point x="102" y="424" type="curve"/>
      <point x="102" y="424"/>
      <point x="102" y="424"/>
      <point x="102" y="424" type="curve"/>
    </contour>
    <contour>
      <point x="137" y="346"/>
      <point x="108" y="423"/>
      <point x="137" y="346" type="curve"/>
      <point x="159" y="379"/>
      <point x="201" y="424"/>
      <point x="258" y="424" type="curve"/>
      <point x="338" y="424"/>
      <point x="345" y="338"/>
      <point x="345" y="245" type="curve"/>
      <point x="347" y="157"/>
      <point x="335" y="78"/>
      <point x="260" y="78" type="curve"/>
      <point x="212" y="78"/>
      <point x="177" y="98"/>
      <point x="147" y="135" type="curve"/>
      <point x="98" y="75"/>
      <point x="147" y="135"/>
      <point x="98" y="75" type="curve"/>
      <point x="151" y="4"/>
      <point x="214" y="-32"/>
      <point x="303" y="-32" type="curve"/>
      <point x="438" y="-32"/>
      <point x="488" y="98"/>
      <point x="488" y="251" type="curve"/>
      <point x="488" y="404"/>
      <point x="441" y="534"/>
      <point x="307" y="534" type="curve"/>
      <point x="216" y="534"/>
      <point x="143" y="476"/>
      <point x="108" y="423" type="curve"/>
    </contour>
    <contour>
      <point x="173" y="-300"/>
      <point x="30" y="-300"/>
      <point x="173" y="-300" type="curve"/>
      <point x="173" y="-22"/>
      <point x="173" y="255"/>
      <point x="173" y="533" type="curve"/>
      <point x="30" y="533"/>
      <point x="173" y="533"/>
      <point x="30" y="533" type="curve"/>
      <point x="30" y="255"/>
      <point x="30" y="-22"/>
      <point x="30" y="-300" type="curve"/>
    </contour>
  </outline>
</glyph>
<glyph name="q" format="1">
  <advance width="525"/>
  <unicode hex="0071"/>
  <outline>
    <contour>
      <point x="421" y="424"/>
      <point x="421" y="534"/>
      <point x="421" y="424" type="curve"/>
      <point x="421" y="424"/>
      <point x="421" y="424"/>
      <point x="421" y="424" type="curve"/>
      <point x="421" y="534"/>
      <point x="421" y="424"/>
      <point x="421" y="534" type="curve"/>
      <point x="421" y="534"/>
      <point x="421" y="534"/>
      <point x="421" y="534" type="curve"/>
    </contour>
    <contour>
      <point x="421" y="-188"/>
      <point x="421" y="-299"/>
      <point x="421" y="-188" type="curve"/>
      <point x="421" y="-188"/>
      <point x="421" y="-188"/>
      <point x="421" y="-188" type="curve"/>
      <point x="421" y="-299"/>
      <point x="421" y="-188"/>
      <point x="421" y="-299" type="curve"/>
      <point x="421" y="-299"/>
      <point x="421" y="-299"/>
      <point x="421" y="-299" type="curve"/>
    </contour>
    <contour>
      <point x="421" y="-299"/>
      <point x="421" y="-188"/>
      <point x="421" y="-299" type="curve"/>
      <point x="421" y="-299"/>
      <point x="421" y="-299"/>
      <point x="421" y="-299" type="curve"/>
      <point x="421" y="-188"/>
      <point x="421" y="-299"/>
      <point x="421" y="-188" type="curve"/>
      <point x="421" y="-188"/>
      <point x="421" y="-188"/>
      <point x="421" y="-188" type="curve"/>
    </contour>
    <contour>
      <point x="415" y="436"/>
      <point x="386" y="370"/>
      <point x="415" y="436" type="curve"/>
      <point x="360" y="491"/>
      <point x="295" y="534"/>
      <point x="218" y="534" type="curve"/>
      <point x="78" y="534"/>
      <point x="30" y="404"/>
      <point x="30" y="246" type="curve"/>
      <point x="30" y="92"/>
      <point x="85" y="-32"/>
      <point x="223" y="-32" type="curve"/>
      <point x="308" y="-32"/>
      <point x="379" y="25"/>
      <point x="420" y="97" type="curve"/>
      <point x="378" y="158"/>
      <point x="420" y="97"/>
      <point x="378" y="158" type="curve"/>
      <point x="352" y="113"/>
      <point x="310" y="78"/>
      <point x="259" y="78" type="curve"/>
      <point x="181" y="78"/>
      <point x="173" y="161"/>
      <point x="173" y="252" type="curve"/>
      <point x="173" y="342"/>
      <point x="182" y="424"/>
      <point x="261" y="424" type="curve"/>
      <point x="308" y="424"/>
      <point x="350" y="403"/>
      <point x="386" y="370" type="curve"/>
    </contour>
    <contour>
      <point x="495" y="-300"/>
      <point x="345" y="-300"/>
      <point x="495" y="-300" type="curve"/>
      <point x="495" y="-22"/>
      <point x="495" y="255"/>
      <point x="495" y="533" type="curve"/>
      <point x="345" y="533"/>
      <point x="495" y="533"/>
      <point x="345" y="533" type="curve"/>
      <point x="345" y="255"/>
      <point x="345" y="-22"/>
      <point x="345" y="-300" type="curve"/>
    </contour>
  </outline>
</glyph>
<glyph name="v" format="1">
  <advance width="527"/>
  <unicode hex="0076"/>
  <outline>
    <contour>
      <point x="110" y="533"/>
      <point x="110" y="423"/>
      <point x="110" y="533" type="curve"/>
      <point x="110" y="533"/>
      <point x="110" y="533"/>
      <point x="110" y="533" type="curve"/>
      <point x="110" y="423"/>
      <point x="110" y="533"/>
      <point x="110" y="423" type="curve"/>
      <point x="110" y="423"/>
      <point x="110" y="423"/>
      <point x="110" y="423" type="curve"/>
    </contour>
    <contour>
      <point x="110" y="423"/>
      <point x="110" y="533"/>
      <point x="110" y="423" type="curve"/>
      <point x="110" y="423"/>
      <point x="110" y="423"/>
      <point x="110" y="423" type="curve"/>
      <point x="110" y="533"/>
      <point x="110" y="423"/>
      <point x="110" y="533" type="curve"/>
      <point x="110" y="533"/>
      <point x="110" y="533"/>
      <point x="110" y="533" type="curve"/>
    </contour>
    <contour>
      <point x="417" y="533"/>
      <point x="417" y="423"/>
      <point x="417" y="533" type="curve"/>
      <point x="417" y="533"/>
      <point x="417" y="533"/>
      <point x="417" y="533" type="curve"/>
      <point x="417" y="423"/>
      <point x="417" y="533"/>
      <point x="417" y="423" type="curve"/>
      <point x="417" y="423"/>
      <point x="417" y="423"/>
      <point x="417" y="423" type="curve"/>
    </contour>
    <contour>
      <point x="417" y="423"/>
      <point x="417" y="533"/>
      <point x="417" y="423" type="curve"/>
      <point x="417" y="423"/>
      <point x="417" y="423"/>
      <point x="417" y="423" type="curve"/>
      <point x="417" y="533"/>
      <point x="417" y="423"/>
      <point x="417" y="533" type="curve"/>
      <point x="417" y="533"/>
      <point x="417" y="533"/>
      <point x="417" y="533" type="curve"/>
    </contour>
    <contour>
      <point x="30" y="533"/>
      <point x="175" y="533"/>
      <point x="30" y="533" type="curve"/>
      <point x="82" y="355"/>
      <point x="134" y="178"/>
      <point x="186" y="0" type="curve"/>
      <point x="329" y="0"/>
      <point x="186" y="0"/>
      <point x="329" y="0" type="curve"/>
      <point x="278" y="178"/>
      <point x="226" y="355"/>
      <point x="175" y="533" type="curve"/>
    </contour>
    <contour>
      <point x="353" y="533"/>
      <point x="497" y="533"/>
      <point x="353" y="533" type="curve"/>
      <point x="353" y="533"/>
      <point x="189" y="0"/>
      <point x="189" y="0" type="curve"/>
      <point x="333" y="0"/>
      <point x="189" y="0"/>
      <point x="333" y="0" type="curve"/>
      <point x="388" y="178"/>
      <point x="442" y="355"/>
      <point x="497" y="533" type="curve"/>
    </contour>
  </outline>
</glyph>
<glyph name="x" format="1">
  <advance width="514"/>
  <unicode hex="0078"/>
  <outline>
    <contour>
      <point x="112" y="110"/>
      <point x="112" y="0"/>
      <point x="112" y="110" type="curve"/>
      <point x="112" y="110"/>
      <point x="112" y="110"/>
      <point x="112" y="110" type="curve"/>
      <point x="112" y="0"/>
      <point x="112" y="110"/>
      <point x="112" y="0" type="curve"/>
      <point x="112" y="0"/>
      <point x="112" y="0"/>
      <point x="112" y="0" type="curve"/>
    </contour>
    <contour>
      <point x="401" y="110"/>
      <point x="401" y="0"/>
      <point x="401" y="110" type="curve"/>
      <point x="401" y="110"/>
      <point x="401" y="110"/>
      <point x="401" y="110" type="curve"/>
      <point x="401" y="0"/>
      <point x="401" y="110"/>
      <point x="401" y="0" type="curve"/>
      <point x="401" y="0"/>
      <point x="401" y="0"/>
      <point x="401" y="0" type="curve"/>
    </contour>
    <contour>
      <point x="401" y="0"/>
      <point x="401" y="110"/>
      <point x="401" y="0" type="curve"/>
      <point x="401" y="0"/>
      <point x="401" y="0"/>
      <point x="401" y="0" type="curve"/>
      <point x="401" y="110"/>
      <point x="401" y="0"/>
      <point x="401" y="110" type="curve"/>
      <point x="401" y="110"/>
      <point x="401" y="110"/>
      <point x="401" y="110" type="curve"/>
    </contour>
    <contour>
      <point x="112" y="0"/>
      <point x="112" y="110"/>
      <point x="112" y="0" type="curve"/>
      <point x="112" y="0"/>
      <point x="112" y="0"/>
      <point x="112" y="0" type="curve"/>
      <point x="112" y="110"/>
      <point x="112" y="0"/>
      <point x="112" y="110" type="curve"/>
      <point x="112" y="110"/>
      <point x="112" y="110"/>
      <point x="112" y="110" type="curve"/>
    </contour>
    <contour>
      <point x="409" y="423"/>
      <point x="409" y="533"/>
      <point x="409" y="423" type="curve"/>
      <point x="409" y="423"/>
      <point x="409" y="423"/>
      <point x="409" y="423" type="curve"/>
      <point x="409" y="533"/>
      <point x="409" y="423"/>
      <point x="409" y="533" type="curve"/>
      <point x="409" y="533"/>
      <point x="409" y="533"/>
      <point x="409" y="533" type="curve"/>
    </contour>
    <contour>
      <point x="107" y="533"/>
      <point x="107" y="423"/>
      <point x="107" y="533" type="curve"/>
      <point x="107" y="533"/>
      <point x="107" y="533"/>
      <point x="107" y="533" type="curve"/>
      <point x="107" y="423"/>
      <point x="107" y="533"/>
      <point x="107" y="423" type="curve"/>
      <point x="107" y="423"/>
      <point x="107" y="423"/>
      <point x="107" y="423" type="curve"/>
    </contour>
    <contour>
      <point x="107" y="423"/>
      <point x="107" y="533"/>
      <point x="107" y="423" type="curve"/>
      <point x="107" y="423"/>
      <point x="107" y="423"/>
      <point x="107" y="423" type="curve"/>
      <point x="107" y="533"/>
      <point x="107" y="423"/>
      <point x="107" y="533" type="curve"/>
      <point x="107" y="533"/>
      <point x="107" y="533"/>
      <point x="107" y="533" type="curve"/>
    </contour>
    <contour>
      <point x="409" y="533"/>
      <point x="409" y="423"/>
      <point x="409" y="533" type="curve"/>
      <point x="409" y="533"/>
      <point x="409" y="533"/>
      <point x="409" y="533" type="curve"/>
      <point x="409" y="423"/>
      <point x="409" y="533"/>
      <point x="409" y="423" type="curve"/>
      <point x="409" y="423"/>
      <point x="409" y="423"/>
      <point x="409" y="423" type="curve"/>
    </contour>
    <contour>
      <point x="474" y="0"/>
      <point x="359" y="0"/>
      <point x="484" y="0" type="curve"/>
      <point x="380" y="178"/>
      <point x="276" y="355"/>
      <point x="171" y="533" type="curve"/>
      <point x="47" y="533"/>
      <point x="161" y="533"/>
      <point x="37" y="533" type="curve"/>
      <point x="141" y="355"/>
      <point x="245" y="178"/>
      <point x="349" y="0" type="curve"/>
    </contour>
    <contour>
      <point x="357" y="533"/>
      <point x="476" y="533"/>
      <point x="352" y="533" type="curve"/>
      <point x="246" y="355"/>
      <point x="136" y="178"/>
      <point x="30" y="0" type="curve"/>
      <point x="157" y="0"/>
      <point x="40" y="0"/>
      <point x="167" y="0" type="curve"/>
      <point x="271" y="178"/>
      <point x="376" y="355"/>
      <point x="481" y="533" type="curve"/>
    </contour>
  </outline>
</glyph>
<glyph name="z" format="1">
  <advance width="452"/>
  <unicode hex="007A"/>
  <outline>
    <contour>
      <point x="82" y="423"/>
      <point x="82" y="533"/>
      <point x="82" y="423" type="curve"/>
      <point x="176" y="423"/>
      <point x="271" y="423"/>
      <point x="365" y="423" type="curve"/>
      <point x="354" y="434"/>
      <point x="335" y="431"/>
      <point x="324" y="442" type="curve"/>
      <point x="313" y="451"/>
      <point x="316" y="469"/>
      <point x="305" y="479" type="curve"/>
      <point x="298" y="469"/>
      <point x="280" y="479"/>
      <point x="273" y="470" type="curve"/>
      <point x="192" y="349"/>
      <point x="273" y="470"/>
      <point x="30" y="110" type="curve"/>
      <point x="30" y="54"/>
      <point x="30" y="110"/>
      <point x="30" y="54" type="curve"/>
      <point x="30" y="0"/>
      <point x="30" y="54"/>
      <point x="30" y="0" type="curve"/>
      <point x="83" y="0"/>
      <point x="30" y="0"/>
      <point x="83" y="0" type="curve"/>
      <point x="402" y="0"/>
      <point x="306" y="0"/>
      <point x="412" y="0" type="curve"/>
      <point x="412" y="110"/>
      <point x="412" y="0"/>
      <point x="412" y="110" type="curve"/>
      <point x="306" y="110"/>
      <point x="189" y="110"/>
      <point x="83" y="110" type="curve"/>
      <point x="93" y="102"/>
      <point x="109" y="103"/>
      <point x="119" y="95" type="curve"/>
      <point x="130" y="84"/>
      <point x="129" y="65"/>
      <point x="141" y="54" type="curve"/>
      <point x="148" y="64"/>
      <point x="166" y="54"/>
      <point x="173" y="63" type="curve"/>
      <point x="254" y="184"/>
      <point x="173" y="63"/>
      <point x="422" y="423" type="curve"/>
      <point x="422" y="479"/>
      <point x="422" y="423"/>
      <point x="422" y="479" type="curve"/>
      <point x="422" y="533"/>
      <point x="422" y="479"/>
      <point x="422" y="533" type="curve"/>
      <point x="365" y="533"/>
      <point x="422" y="533"/>
      <point x="365" y="533" type="curve"/>
      <point x="271" y="533"/>
      <point x="176" y="533"/>
      <point x="82" y="533" type="curve"/>
    </contour>
    <contour>
      <point x="82" y="478"/>
      <point x="194" y="478"/>
      <point x="82" y="478" type="curve"/>
      <point x="82" y="478"/>
      <point x="82" y="478"/>
      <point x="82" y="478" type="curve"/>
      <point x="194" y="478"/>
      <point x="82" y="478"/>
      <point x="194" y="478" type="curve"/>
      <point x="194" y="478"/>
      <point x="194" y="478"/>
      <point x="194" y="478" type="curve"/>
    </contour>
    <contour>
      <point x="402" y="55"/>
      <point x="300" y="55"/>
      <point x="412" y="55" type="curve"/>
      <point x="412" y="55"/>
      <point x="412" y="55"/>
      <point x="412" y="55" type="curve"/>
      <point x="300" y="55"/>
      <point x="402" y="55"/>
      <point x="290" y="55" type="curve"/>
      <point x="290" y="55"/>
      <point x="290" y="55"/>
      <point x="290" y="55" type="curve"/>
    </contour>
  </outline>
</glyph>
<glyph name="aadeva" format="1">
  <advance width="875"/>
  <unicode hex="0906"/>
  <outline>
    <contour>
      <point x="142" y="123"/>
      <point x="30" y="123"/>
      <point x="142" y="123" type="curve"/>
      <point x="142" y="123"/>
      <point x="142" y="123"/>
      <point x="142" y="123" type="curve"/>
      <point x="30" y="123"/>
      <point x="142" y="123"/>
      <point x="30" y="123" type="curve"/>
      <point x="30" y="123"/>
      <point x="30" y="123"/>
      <point x="30" y="123" type="curve"/>
    </contour>
    <contour>
      <point x="510" y="447"/>
      <point x="555" y="364"/>
      <point x="510" y="447" type="curve"/>
      <point x="419" y="397"/>
      <point x="340" y="395"/>
      <point x="238" y="415" type="curve"/>
      <point x="206" y="349"/>
      <point x="238" y="415"/>
      <point x="206" y="349" type="curve"/>
      <point x="338" y="321"/>
      <point x="443" y="293"/>
      <point x="555" y="364" type="curve"/>
    </contour>
    <contour>
      <point x="30" y="123"/>
      <point x="128" y="194"/>
      <point x="30" y="123" type="curve"/>
      <point x="72" y="64"/>
      <point x="138" y="28"/>
      <point x="210" y="28" type="curve"/>
      <point x="350" y="22"/>
      <point x="447" y="100"/>
      <point x="445" y="236" type="curve"/>
      <point x="444" y="372"/>
      <point x="325" y="429"/>
      <point x="174" y="429" type="curve"/>
      <point x="174" y="335"/>
      <point x="174" y="429"/>
      <point x="174" y="335" type="curve"/>
      <point x="248" y="335"/>
      <point x="301" y="300"/>
      <point x="302" y="231" type="curve"/>
      <point x="303" y="176"/>
      <point x="275" y="136"/>
      <point x="223" y="138" type="curve"/>
      <point x="183" y="138"/>
      <point x="152" y="163"/>
      <point x="128" y="194" type="curve"/>
    </contour>
    <contour>
      <point x="141" y="566"/>
      <point x="57" y="660"/>
      <point x="141" y="566" type="curve"/>
      <point x="167" y="588"/>
      <point x="182" y="612"/>
      <point x="215" y="612" type="curve"/>
      <point x="260" y="612"/>
      <point x="280" y="572"/>
      <point x="279" y="522" type="curve"/>
      <point x="279" y="465"/>
      <point x="235" y="435"/>
      <point x="174" y="435" type="curve"/>
      <point x="174" y="336"/>
      <point x="174" y="435"/>
      <point x="174" y="336" type="curve"/>
      <point x="317" y="336"/>
      <point x="422" y="400"/>
      <point x="422" y="533" type="curve"/>
      <point x="422" y="648"/>
      <point x="349" y="722"/>
      <point x="235" y="722" type="curve"/>
      <point x="163" y="722"/>
      <point x="111" y="707"/>
      <point x="57" y="660" type="curve"/>
    </contour>
    <contour>
      <point x="740" y="110"/>
      <point x="740" y="0"/>
      <point x="740" y="110" type="curve"/>
      <point x="740" y="110"/>
      <point x="740" y="110"/>
      <point x="740" y="110" type="curve"/>
      <point x="740" y="0"/>
      <point x="740" y="110"/>
      <point x="740" y="0" type="curve"/>
      <point x="740" y="0"/>
      <point x="740" y="0"/>
      <point x="740" y="0" type="curve"/>
    </contour>
    <contour>
      <point x="740" y="0"/>
      <point x="740" y="110"/>
      <point x="740" y="0" type="curve"/>
      <point x="740" y="0"/>
      <point x="740" y="0"/>
      <point x="740" y="0" type="curve"/>
      <point x="740" y="110"/>
      <point x="740" y="0"/>
      <point x="740" y="110" type="curve"/>
      <point x="740" y="110"/>
      <point x="740" y="110"/>
      <point x="740" y="110" type="curve"/>
    </contour>
    <contour>
      <point x="535" y="110"/>
      <point x="535" y="0"/>
      <point x="535" y="110" type="curve"/>
      <point x="535" y="110"/>
      <point x="535" y="110"/>
      <point x="535" y="110" type="curve"/>
      <point x="535" y="0"/>
      <point x="535" y="110"/>
      <point x="535" y="0" type="curve"/>
      <point x="535" y="0"/>
      <point x="535" y="0"/>
      <point x="535" y="0" type="curve"/>
    </contour>
    <contour>
      <point x="535" y="0"/>
      <point x="535" y="110"/>
      <point x="535" y="0" type="curve"/>
      <point x="535" y="0"/>
      <point x="535" y="0"/>
      <point x="535" y="0" type="curve"/>
      <point x="535" y="110"/>
      <point x="535" y="0"/>
      <point x="535" y="110" type="curve"/>
      <point x="535" y="110"/>
      <point x="535" y="110"/>
      <point x="535" y="110" type="curve"/>
    </contour>
    <contour>
      <point x="667" y="712"/>
      <point x="810" y="712"/>
      <point x="667" y="712" type="curve"/>
      <point x="667" y="475"/>
      <point x="667" y="237"/>
      <point x="667" y="0" type="curve"/>
      <point x="810" y="0"/>
      <point x="667" y="0"/>
      <point x="810" y="0" type="curve"/>
      <point x="810" y="237"/>
      <point x="810" y="475"/>
      <point x="810" y="712" type="curve"/>
    </contour>
    <contour>
      <point x="870" y="722"/>
      <point x="870" y="612"/>
      <point x="870" y="722" type="curve"/>
      <point x="728" y="722"/>
      <point x="562" y="722"/>
      <point x="420" y="722" type="curve"/>
      <point x="420" y="612"/>
      <point x="420" y="722"/>
      <point x="420" y="612" type="curve"/>
      <point x="562" y="612"/>
      <point x="728" y="612"/>
      <point x="870" y="612" type="curve"/>
    </contour>
    <contour>
      <point x="463" y="712"/>
      <point x="606" y="712"/>
      <point x="463" y="712" type="curve"/>
      <point x="463" y="475"/>
      <point x="463" y="237"/>
      <point x="463" y="0" type="curve"/>
      <point x="606" y="0"/>
      <point x="463" y="0"/>
      <point x="606" y="0" type="curve"/>
      <point x="606" y="237"/>
      <point x="606" y="475"/>
      <point x="606" y="712" type="curve"/>
    </contour>
  </outline>
</glyph>
<glyph name="dhadeva" format="1">
  <advance width="583"/>
  <unicode hex="0927"/>
  <outline>
    <contour>
      <point x="448" y="0"/>
      <point x="448" y="110"/>
      <point x="448" y="0" type="curve"/>
      <point x="448" y="0"/>
      <point x="448" y="0"/>
      <point x="448" y="0" type="curve"/>
      <point x="448" y="110"/>
      <point x="448" y="0"/>
      <point x="448" y="110" type="curve"/>
      <point x="448" y="110"/>
      <point x="448" y="110"/>
      <point x="448" y="110" type="curve"/>
    </contour>
    <contour>
      <point x="448" y="110"/>
      <point x="448" y="0"/>
      <point x="448" y="110" type="curve"/>
      <point x="448" y="110"/>
      <point x="448" y="110"/>
      <point x="448" y="110" type="curve"/>
      <point x="448" y="0"/>
      <point x="448" y="110"/>
      <point x="448" y="0" type="curve"/>
      <point x="448" y="0"/>
      <point x="448" y="0"/>
      <point x="448" y="0" type="curve"/>
    </contour>
    <contour>
      <point x="575" y="722"/>
      <point x="575" y="612"/>
      <point x="575" y="722" type="curve"/>
      <point x="537" y="722"/>
      <point x="477" y="722"/>
      <point x="440" y="722" type="curve"/>
      <point x="440" y="612"/>
      <point x="440" y="722"/>
      <point x="440" y="612" type="curve"/>
      <point x="477" y="612"/>
      <point x="537" y="612"/>
      <point x="575" y="612" type="curve"/>
    </contour>
    <contour>
      <point x="396" y="323"/>
      <point x="500" y="273"/>
      <point x="396" y="323" type="curve"/>
      <point x="371" y="257"/>
      <point x="337" y="208"/>
      <point x="269" y="208" type="curve"/>
      <point x="212" y="208"/>
      <point x="173" y="241"/>
      <point x="173" y="297" type="curve"/>
      <point x="173" y="355"/>
      <point x="223" y="382"/>
      <point x="288" y="382" type="curve"/>
      <point x="288" y="475"/>
      <point x="288" y="382"/>
      <point x="288" y="475" type="curve"/>
      <point x="143" y="475"/>
      <point x="30" y="418"/>
      <point x="30" y="286" type="curve"/>
      <point x="30" y="162"/>
      <point x="125" y="98"/>
      <point x="256" y="98" type="curve"/>
      <point x="377" y="98"/>
      <point x="460" y="158"/>
      <point x="500" y="273" type="curve"/>
    </contour>
    <contour>
      <point x="520" y="0"/>
      <point x="377" y="0"/>
      <point x="520" y="0" type="curve"/>
      <point x="520" y="237"/>
      <point x="520" y="485"/>
      <point x="520" y="722" type="curve"/>
      <point x="377" y="722"/>
      <point x="520" y="722"/>
      <point x="377" y="722" type="curve"/>
      <point x="377" y="485"/>
      <point x="377" y="237"/>
      <point x="377" y="0" type="curve"/>
    </contour>
    <contour>
      <point x="328" y="488"/>
      <point x="237" y="554"/>
      <point x="328" y="488" type="curve"/>
      <point x="352" y="519"/>
      <point x="366" y="545"/>
      <point x="366" y="584" type="curve"/>
      <point x="366" y="671"/>
      <point x="305" y="722"/>
      <point x="216" y="722" type="curve"/>
      <point x="109" y="722"/>
      <point x="39" y="659"/>
      <point x="39" y="555" type="curve"/>
      <point x="39" y="429"/>
      <point x="148" y="382"/>
      <point x="288" y="382" type="curve"/>
      <point x="288" y="475"/>
      <point x="288" y="382"/>
      <point x="288" y="475" type="curve"/>
      <point x="226" y="475"/>
      <point x="182" y="504"/>
      <point x="182" y="560" type="curve"/>
      <point x="182" y="586"/>
      <point x="185" y="612"/>
      <point x="208" y="612" type="curve"/>
      <point x="229" y="612"/>
      <point x="241" y="599"/>
      <point x="241" y="576" type="curve"/>
      <point x="241" y="569"/>
      <point x="241" y="561"/>
      <point x="237" y="554" type="curve"/>
    </contour>
  </outline>
</glyph>
<glyph name="ddhadeva_viramadeva_ddhadeva" format="1">
  <advance width="556"/>
  <unicode hex="E001"/>
  <outline>
    <contour>
      <point x="293" y="223"/>
      <point x="436" y="223"/>
      <point x="293" y="223" type="curve"/>
      <point x="293" y="172"/>
      <point x="293" y="120"/>
      <point x="293" y="68" type="curve"/>
      <point x="304" y="80"/>
      <point x="314" y="92"/>
      <point x="326" y="103" type="curve"/>
      <point x="337" y="117"/>
      <point x="358" y="119"/>
      <point x="370" y="132" type="curve"/>
      <point x="340" y="132"/>
      <point x="311" y="132"/>
      <point x="281" y="132" type="curve"/>
      <point x="138" y="132"/>
      <point x="39" y="67"/>
      <point x="40" y="-68" type="curve"/>
      <point x="40" y="-211"/>
      <point x="151" y="-270"/>
      <point x="307" y="-270" type="curve"/>
      <point x="410" y="-270"/>
      <point x="484" y="-234"/>
      <point x="484" y="-140" type="curve"/>
      <point x="484" y="-64"/>
      <point x="444" y="-19"/>
      <point x="370" y="-19" type="curve"/>
      <point x="292" y="-19"/>
      <point x="248" y="-65"/>
      <point x="248" y="-144" type="curve"/>
      <point x="248" y="-211"/>
      <point x="285" y="-245"/>
      <point x="355" y="-258" type="curve"/>
      <point x="375" y="-186"/>
      <point x="355" y="-258"/>
      <point x="375" y="-186" type="curve"/>
      <point x="352" y="-180"/>
      <point x="344" y="-166"/>
      <point x="344" y="-142" type="curve"/>
      <point x="344" y="-127"/>
      <point x="350" y="-113"/>
      <point x="363" y="-113" type="curve"/>
      <point x="379" y="-113"/>
      <point x="384" y="-126"/>
      <point x="384" y="-144" type="curve"/>
      <point x="384" y="-175"/>
      <point x="355" y="-182"/>
      <point x="320" y="-182" type="curve"/>
      <point x="238" y="-182"/>
      <point x="183" y="-135"/>
      <point x="183" y="-68" type="curve"/>
      <point x="183" y="-19"/>
      <point x="222" y="16"/>
      <point x="281" y="16" type="curve"/>
      <point x="311" y="16"/>
      <point x="340" y="16"/>
      <point x="370" y="16" type="curve"/>
      <point x="436" y="16"/>
      <point x="370" y="16"/>
      <point x="436" y="16" type="curve"/>
      <point x="436" y="68"/>
      <point x="436" y="16"/>
      <point x="436" y="68" type="curve"/>
      <point x="436" y="120"/>
      <point x="436" y="172"/>
      <point x="436" y="223" type="curve"/>
    </contour>
    <contour>
      <point x="0" y="612"/>
      <point x="0" y="722"/>
      <point x="0" y="612" type="curve"/>
      <point x="165" y="612"/>
      <point x="379" y="612"/>
      <point x="544" y="612" type="curve"/>
      <point x="544" y="722"/>
      <point x="544" y="612"/>
      <point x="544" y="722" type="curve"/>
      <point x="379" y="722"/>
      <point x="165" y="722"/>
      <point x="0" y="722" type="curve"/>
    </contour>
    <contour>
      <point x="293" y="666"/>
      <point x="436" y="666"/>
      <point x="293" y="666" type="curve"/>
      <point x="293" y="610"/>
      <point x="293" y="553"/>
      <point x="293" y="497" type="curve"/>
      <point x="305" y="508"/>
      <point x="314" y="523"/>
      <point x="326" y="534" type="curve"/>
      <point x="337" y="547"/>
      <point x="357" y="547"/>
      <point x="369" y="560" type="curve"/>
      <point x="340" y="560"/>
      <point x="310" y="560"/>
      <point x="281" y="560" type="curve"/>
      <point x="139" y="560"/>
      <point x="39" y="500"/>
      <point x="40" y="370" type="curve"/>
      <point x="40" y="229"/>
      <point x="151" y="173"/>
      <point x="307" y="173" type="curve"/>
      <point x="410" y="173"/>
      <point x="485" y="208"/>
      <point x="485" y="301" type="curve"/>
      <point x="485" y="378"/>
      <point x="440" y="422"/>
      <point x="365" y="422" type="curve"/>
      <point x="288" y="422"/>
      <point x="243" y="379"/>
      <point x="243" y="301" type="curve"/>
      <point x="243" y="232"/>
      <point x="277" y="196"/>
      <point x="346" y="187" type="curve"/>
      <point x="379" y="259"/>
      <point x="346" y="187"/>
      <point x="379" y="259" type="curve"/>
      <point x="353" y="264"/>
      <point x="343" y="276"/>
      <point x="343" y="301" type="curve"/>
      <point x="343" y="317"/>
      <point x="350" y="328"/>
      <point x="365" y="328" type="curve"/>
      <point x="379" y="328"/>
      <point x="385" y="317"/>
      <point x="385" y="301" type="curve"/>
      <point x="385" y="271"/>
      <point x="355" y="267"/>
      <point x="320" y="267" type="curve"/>
      <point x="240" y="267"/>
      <point x="183" y="306"/>
      <point x="183" y="370" type="curve"/>
      <point x="183" y="415"/>
      <point x="224" y="444"/>
      <point x="281" y="444" type="curve"/>
      <point x="310" y="444"/>
      <point x="340" y="444"/>
      <point x="369" y="444" type="curve"/>
      <point x="436" y="444"/>
      <point x="369" y="444"/>
      <point x="436" y="444" type="curve"/>
      <point x="436" y="497"/>
      <point x="436" y="444"/>
      <point x="436" y="497" type="curve"/>
      <point x="436" y="553"/>
      <point x="436" y="610"/>
      <point x="436" y="666" type="curve"/>
    </contour>
  </outline>
</glyph>
